<svg width="43" height="12" viewBox="0 0 43 12" fill="none" xmlns="http://www.w3.org/2000/svg">
<path d="M1.74716 10.9091H5.55627e-06L3.92579 -3.09944e-06H5.82742L9.7532 10.9091H8.00604L4.92188 1.98153H4.83665L1.74716 10.9091ZM2.04013 6.63707H7.70775V8.02201H2.04013V6.63707ZM11.3286 10.9091V-3.09944e-06H12.9213V4.05362H13.0171C13.1095 3.88316 13.2426 3.68608 13.4166 3.46236C13.5906 3.23863 13.8321 3.04332 14.1411 2.87642C14.45 2.70596 14.8584 2.62074 15.3662 2.62074C16.0267 2.62074 16.6162 2.78764 17.1347 3.12145C17.6531 3.45525 18.0598 3.93643 18.3545 4.56498C18.6528 5.19353 18.8019 5.94993 18.8019 6.83416C18.8019 7.71839 18.6546 8.47656 18.3598 9.10866C18.0651 9.73721 17.6603 10.2219 17.1453 10.5629C16.6304 10.9002 16.0427 11.0689 15.3822 11.0689C14.885 11.0689 14.4784 10.9854 14.1624 10.8185C13.8499 10.6516 13.6049 10.4563 13.4273 10.2326C13.2497 10.0089 13.113 9.81001 13.0171 9.63601H12.884V10.9091H11.3286ZM12.8893 6.81818C12.8893 7.39346 12.9728 7.89772 13.1397 8.33096C13.3066 8.7642 13.548 9.10334 13.8641 9.34836C14.1801 9.58984 14.5672 9.71058 15.0253 9.71058C15.5012 9.71058 15.8989 9.58451 16.2185 9.33238C16.5381 9.0767 16.7796 8.73047 16.9429 8.29368C17.1098 7.85689 17.1933 7.36505 17.1933 6.81818C17.1933 6.27841 17.1116 5.79368 16.9482 5.36399C16.7884 4.9343 16.547 4.59517 16.2238 4.34659C15.9042 4.09801 15.5047 3.97372 15.0253 3.97372C14.5637 3.97372 14.173 4.09268 13.8534 4.33061C13.5374 4.56853 13.2977 4.90057 13.1343 5.3267C12.971 5.75284 12.8893 6.25 12.8893 6.81818ZM24.0368 11.0742C23.2697 11.0742 22.6003 10.8984 22.0286 10.5469C21.4569 10.1953 21.013 9.70348 20.6969 9.07137C20.3809 8.43927 20.2228 7.70064 20.2228 6.85547C20.2228 6.00674 20.3809 5.26456 20.6969 4.6289C21.013 3.99325 21.4569 3.49964 22.0286 3.14808C22.6003 2.79652 23.2697 2.62074 24.0368 2.62074C24.8038 2.62074 25.4732 2.79652 26.0449 3.14808C26.6167 3.49964 27.0606 3.99325 27.3766 4.6289C27.6927 5.26456 27.8507 6.00674 27.8507 6.85547C27.8507 7.70064 27.6927 8.43927 27.3766 9.07137C27.0606 9.70348 26.6167 10.1953 26.0449 10.5469C25.4732 10.8984 24.8038 11.0742 24.0368 11.0742ZM24.0421 9.73721C24.5392 9.73721 24.9512 9.60582 25.2779 9.34304C25.6046 9.08025 25.8461 8.73047 26.0023 8.29368C26.1621 7.85689 26.242 7.37571 26.242 6.85014C26.242 6.32812 26.1621 5.84872 26.0023 5.41193C25.8461 4.97159 25.6046 4.61825 25.2779 4.35191C24.9512 4.08558 24.5392 3.95241 24.0421 3.95241C23.5414 3.95241 23.1259 4.08558 22.7956 4.35191C22.4689 4.61825 22.2257 4.97159 22.0659 5.41193C21.9096 5.84872 21.8315 6.32812 21.8315 6.85014C21.8315 7.37571 21.9096 7.85689 22.0659 8.29368C22.2257 8.73047 22.4689 9.08025 22.7956 9.34304C23.1259 9.60582 23.5414 9.73721 24.0421 9.73721ZM34.8114 7.51598V2.72727H36.4094V10.9091H34.8433V9.49218H34.7581C34.5699 9.92897 34.268 10.293 33.8525 10.5842C33.4406 10.8718 32.9275 11.0156 32.3131 11.0156C31.7876 11.0156 31.3224 10.9002 30.9175 10.6694C30.5163 10.435 30.2002 10.0888 29.9694 9.63068C29.7421 9.17258 29.6285 8.60618 29.6285 7.93146V2.72727H31.2212V7.7397C31.2212 8.29723 31.3756 8.74112 31.6846 9.07137C31.9935 9.40163 32.3948 9.56676 32.8884 9.56676C33.1867 9.56676 33.4832 9.49218 33.778 9.34304C34.0763 9.19389 34.3231 8.96839 34.5184 8.66655C34.7172 8.3647 34.8149 7.98118 34.8114 7.51598ZM42.3686 2.72727V4.00568H37.8995V2.72727H42.3686ZM39.098 0.767043H40.6907V8.50674C40.6907 8.81569 40.7369 9.04829 40.8292 9.20454C40.9215 9.35724 41.0405 9.462 41.1861 9.51882C41.3352 9.57209 41.4968 9.59872 41.6708 9.59872C41.7987 9.59872 41.9105 9.58984 42.0064 9.57209C42.1023 9.55433 42.1769 9.54013 42.2301 9.52947L42.5178 10.8452C42.4254 10.8807 42.294 10.9162 42.1236 10.9517C41.9531 10.9908 41.7401 11.0121 41.4844 11.0156C41.0653 11.0227 40.6747 10.9482 40.3125 10.7919C39.9503 10.6357 39.6573 10.3942 39.4336 10.0675C39.2099 9.74076 39.098 9.33061 39.098 8.837V0.767043Z" fill="#242424"/>
</svg>
