<svg width="61" height="12" viewBox="0 0 61 12" fill="none" xmlns="http://www.w3.org/2000/svg">
<path d="M6.38138 3.30256C6.32456 2.7983 6.09019 2.40768 5.67825 2.13069C5.26632 1.85015 4.74786 1.70988 4.12286 1.70988C3.67541 1.70988 3.28834 1.7809 2.96163 1.92295C2.63493 2.06144 2.38102 2.2532 2.19992 2.49823C2.02236 2.73971 1.93358 3.01492 1.93358 3.32387C1.93358 3.5831 1.99395 3.80682 2.11469 3.99503C2.23898 4.18324 2.40055 4.34127 2.59942 4.46911C2.80183 4.5934 3.01845 4.69816 3.24928 4.78339C3.4801 4.86506 3.70205 4.93253 3.91511 4.9858L4.98046 5.26279C5.32847 5.34802 5.68536 5.46343 6.05112 5.60903C6.41689 5.75462 6.75602 5.94638 7.06852 6.18431C7.38102 6.42224 7.63315 6.71698 7.82492 7.06854C8.02023 7.4201 8.11788 7.84091 8.11788 8.33097C8.11788 8.94887 7.95808 9.49752 7.63848 9.97692C7.32243 10.4563 6.86256 10.8345 6.25886 11.1115C5.65872 11.3885 4.93251 11.527 4.08024 11.527C3.26348 11.527 2.5568 11.3974 1.96021 11.1381C1.36362 10.8789 0.896648 10.5114 0.55929 10.0355C0.221932 9.55611 0.0354975 8.98793 -1.38208e-05 8.33097H1.65126C1.68322 8.72515 1.81107 9.05363 2.03479 9.31641C2.26206 9.57564 2.55148 9.76918 2.90304 9.89702C3.25815 10.0213 3.647 10.0835 4.06959 10.0835C4.53479 10.0835 4.94849 10.0107 5.31071 9.86506C5.67648 9.71591 5.96412 9.50995 6.17364 9.24716C6.38315 8.98083 6.48791 8.6701 6.48791 8.31499C6.48791 7.99184 6.39558 7.72728 6.21092 7.52131C6.02982 7.31535 5.78301 7.14489 5.47051 7.00995C5.16156 6.87501 4.81178 6.75604 4.42115 6.65306L3.13209 6.3015C2.25851 6.06357 1.56604 5.71378 1.05467 5.25214C0.546861 4.79049 0.292955 4.17969 0.292955 3.41975C0.292955 2.7912 0.463409 2.24255 0.804319 1.7738C1.14523 1.30505 1.60688 0.941056 2.18926 0.681824C2.77165 0.419039 3.42861 0.287647 4.16014 0.287647C4.89878 0.287647 5.55041 0.417264 6.11504 0.676497C6.68322 0.93573 7.13067 1.29262 7.45737 1.74716C7.78408 2.19816 7.95453 2.71662 7.96874 3.30256H6.38138ZM13.4832 11.511C12.6771 11.511 11.9829 11.3388 11.4005 10.9943C10.8216 10.6463 10.3742 10.158 10.0581 9.52948C9.74564 8.89738 9.58939 8.15697 9.58939 7.30824C9.58939 6.47018 9.74564 5.73154 10.0581 5.09233C10.3742 4.45313 10.8145 3.9542 11.3792 3.59553C11.9473 3.23687 12.6114 3.05753 13.3713 3.05753C13.833 3.05753 14.2804 3.13388 14.7137 3.28658C15.1469 3.43928 15.5358 3.67898 15.8802 4.00569C16.2247 4.33239 16.4963 4.75675 16.6952 5.27877C16.8941 5.79724 16.9935 6.42756 16.9935 7.16975V7.73438H10.4896V6.5412H15.4328C15.4328 6.12216 15.3476 5.75107 15.1771 5.42792C15.0066 5.10121 14.7669 4.84376 14.458 4.65554C14.1526 4.46733 13.7939 4.37323 13.382 4.37323C12.9346 4.37323 12.5439 4.48332 12.2101 4.70349C11.8799 4.9201 11.6242 5.2042 11.4431 5.55576C11.2655 5.90377 11.1767 6.28197 11.1767 6.69035V7.62252C11.1767 8.16939 11.2726 8.63459 11.4644 9.01812C11.6597 9.40164 11.9314 9.69461 12.2794 9.89702C12.6274 10.0959 13.034 10.1953 13.4992 10.1953C13.801 10.1953 14.0762 10.1527 14.3248 10.0675C14.5734 9.9787 14.7882 9.84731 14.9694 9.6733C15.1505 9.4993 15.289 9.28445 15.3848 9.02877L16.8923 9.30043C16.7716 9.74432 16.5549 10.1332 16.2424 10.467C15.9335 10.7972 15.5446 11.0547 15.0759 11.2394C14.6107 11.4205 14.0798 11.511 13.4832 11.511ZM18.7606 11.3459V3.16407H20.3001V4.46378H20.3853C20.5344 4.02344 20.7972 3.67721 21.1736 3.42508C21.5536 3.16939 21.9833 3.04155 22.4627 3.04155C22.5621 3.04155 22.6793 3.0451 22.8143 3.05221C22.9528 3.05931 23.0611 3.06819 23.1392 3.07884V4.60228C23.0753 4.58452 22.9616 4.56499 22.7983 4.54368C22.6349 4.51883 22.4716 4.5064 22.3082 4.5064C21.9318 4.5064 21.5962 4.5863 21.3015 4.7461C21.0103 4.90235 20.7795 5.12074 20.609 5.40128C20.4386 5.67827 20.3533 5.99432 20.3533 6.34944V11.3459H18.7606ZM31.7658 3.16407L28.7988 11.3459H27.0943L24.122 3.16407H25.8318L27.9039 9.46023H27.9892L30.0559 3.16407H31.7658ZM33.2626 11.3459V3.16407H34.8553V11.3459H33.2626ZM34.0669 1.90164C33.7899 1.90164 33.552 1.80931 33.3531 1.62465C33.1578 1.43644 33.0602 1.21272 33.0602 0.953485C33.0602 0.690701 33.1578 0.46698 33.3531 0.28232C33.552 0.0941103 33.7899 5.30481e-06 34.0669 5.30481e-06C34.3439 5.30481e-06 34.5801 0.0941103 34.7754 0.28232C34.9742 0.46698 35.0737 0.690701 35.0737 0.953485C35.0737 1.21272 34.9742 1.43644 34.7754 1.62465C34.5801 1.80931 34.3439 1.90164 34.0669 1.90164ZM40.4443 11.511C39.6524 11.511 38.9706 11.3317 38.3989 10.973C37.8307 10.6108 37.3939 10.1119 37.0885 9.47621C36.7831 8.84056 36.6304 8.11258 36.6304 7.29226C36.6304 6.4613 36.7867 5.72799 37.0992 5.09233C37.4117 4.45313 37.852 3.9542 38.4202 3.59553C38.9884 3.23687 39.6577 3.05753 40.4283 3.05753C41.0498 3.05753 41.6038 3.17295 42.0903 3.40377C42.5768 3.63104 42.9692 3.95064 43.2675 4.36258C43.5693 4.77451 43.7487 5.25569 43.8055 5.80611H42.2554C42.1702 5.42259 41.9749 5.09233 41.6695 4.81535C41.3676 4.53836 40.9628 4.39986 40.455 4.39986C40.0111 4.39986 39.6222 4.51705 39.2884 4.75143C38.9582 4.98225 38.7007 5.31251 38.5161 5.74219C38.3314 6.16833 38.2391 6.67259 38.2391 7.25498C38.2391 7.85157 38.3296 8.36648 38.5107 8.79972C38.6918 9.23296 38.9475 9.56854 39.2778 9.80647C39.6116 10.0444 40.004 10.1634 40.455 10.1634C40.7568 10.1634 41.0303 10.1083 41.2753 9.99823C41.5239 9.88459 41.7316 9.72302 41.8985 9.5135C42.069 9.30398 42.1879 9.05185 42.2554 8.75711H43.8055C43.7487 9.28623 43.5764 9.75853 43.2888 10.174C43.0011 10.5895 42.6158 10.9162 42.1329 11.1541C41.6535 11.3921 41.0906 11.511 40.4443 11.511ZM49.035 11.511C48.2289 11.511 47.5346 11.3388 46.9522 10.9943C46.3734 10.6463 45.9259 10.158 45.6099 9.52948C45.2974 8.89738 45.1411 8.15697 45.1411 7.30824C45.1411 6.47018 45.2974 5.73154 45.6099 5.09233C45.9259 4.45313 46.3663 3.9542 46.9309 3.59553C47.4991 3.23687 48.1632 3.05753 48.9231 3.05753C49.3848 3.05753 49.8322 3.13388 50.2654 3.28658C50.6987 3.43928 51.0875 3.67898 51.432 4.00569C51.7764 4.33239 52.0481 4.75675 52.247 5.27877C52.4458 5.79724 52.5453 6.42756 52.5453 7.16975V7.73438H46.0414V6.5412H50.9845C50.9845 6.12216 50.8993 5.75107 50.7289 5.42792C50.5584 5.10121 50.3187 4.84376 50.0098 4.65554C49.7044 4.46733 49.3457 4.37323 48.9338 4.37323C48.4863 4.37323 48.0957 4.48332 47.7619 4.70349C47.4316 4.9201 47.1759 5.2042 46.9948 5.55576C46.8173 5.90377 46.7285 6.28197 46.7285 6.69035V7.62252C46.7285 8.16939 46.8244 8.63459 47.0161 9.01812C47.2115 9.40164 47.4831 9.69461 47.8311 9.89702C48.1791 10.0959 48.5857 10.1953 49.0509 10.1953C49.3528 10.1953 49.628 10.1527 49.8766 10.0675C50.1252 9.9787 50.34 9.84731 50.5211 9.6733C50.7022 9.4993 50.8407 9.28445 50.9366 9.02877L52.4441 9.30043C52.3233 9.74432 52.1067 10.1332 51.7942 10.467C51.4852 10.7972 51.0964 11.0547 50.6276 11.2394C50.1625 11.4205 49.6316 11.511 49.035 11.511ZM60.4434 5.16158L58.9999 5.41726C58.9395 5.2326 58.8436 5.05682 58.7123 4.88992C58.5844 4.72302 58.4104 4.5863 58.1902 4.47976C57.9701 4.37323 57.6949 4.31996 57.3646 4.31996C56.9136 4.31996 56.5372 4.42117 56.2353 4.62358C55.9335 4.82245 55.7826 5.07991 55.7826 5.39596C55.7826 5.66939 55.8838 5.88957 56.0862 6.05647C56.2886 6.22337 56.6153 6.36009 57.0663 6.46662L58.366 6.76492C59.1189 6.93893 59.6799 7.20704 60.0493 7.56925C60.4186 7.93147 60.6032 8.40199 60.6032 8.98083C60.6032 9.47089 60.4612 9.90768 60.1771 10.2912C59.8966 10.6712 59.5042 10.9695 58.9999 11.1861C58.4992 11.4027 57.9186 11.511 57.2581 11.511C56.3419 11.511 55.5944 11.3157 55.0155 10.9251C54.4367 10.5309 54.0816 9.9716 53.9502 9.24716L55.4896 9.01279C55.5855 9.41407 55.7826 9.71769 56.0809 9.92366C56.3792 10.1261 56.768 10.2273 57.2474 10.2273C57.7694 10.2273 58.1867 10.119 58.4992 9.90235C58.8117 9.68218 58.9679 9.41407 58.9679 9.09802C58.9679 8.84234 58.8721 8.62749 58.6803 8.45349C58.4921 8.27948 58.2027 8.14809 57.812 8.05931L56.4271 7.75569C55.6636 7.58168 55.099 7.30469 54.7332 6.92472C54.371 6.54475 54.1899 6.06357 54.1899 5.48118C54.1899 4.99823 54.3248 4.57564 54.5947 4.21343C54.8646 3.85121 55.2375 3.5689 55.7133 3.36648C56.1892 3.16052 56.7343 3.05753 57.3486 3.05753C58.2329 3.05753 58.9289 3.2493 59.4367 3.63282C59.9445 4.01279 60.2801 4.52238 60.4434 5.16158Z" fill="#242424"/>
</svg>
