<svg width="30" height="15" viewBox="0 0 30 15" fill="none" xmlns="http://www.w3.org/2000/svg">
<path d="M6.96629e-06 10.9091V-3.09944e-06H3.99504C4.76918 -3.09944e-06 5.41016 0.127838 5.91798 0.38352C6.42579 0.63565 6.80576 0.978335 7.05789 1.41157C7.31002 1.84126 7.43609 2.32599 7.43609 2.86576C7.43609 3.32031 7.35264 3.70383 7.18573 4.01633C7.01883 4.32528 6.79511 4.57386 6.51457 4.76207C6.23758 4.94673 5.93218 5.08167 5.59837 5.1669V5.27343C5.96059 5.29119 6.31393 5.40838 6.65839 5.625C7.0064 5.83807 7.29404 6.14169 7.52131 6.53586C7.74859 6.93004 7.86222 7.40944 7.86222 7.97407C7.86222 8.5316 7.73083 9.03231 7.46805 9.4762C7.20881 9.91655 6.80754 10.2663 6.26421 10.5256C5.72089 10.7812 5.02664 10.9091 4.18147 10.9091H6.96629e-06ZM1.64596 9.49751H4.02167C4.81002 9.49751 5.37465 9.34481 5.71556 9.03941C6.05647 8.73402 6.22692 8.35227 6.22692 7.89417C6.22692 7.54971 6.13992 7.23366 5.96592 6.94602C5.79191 6.65838 5.54333 6.42933 5.22018 6.25887C4.90058 6.08842 4.5206 6.00319 4.08026 6.00319H1.64596V9.49751ZM1.64596 4.71946H3.85121C4.22053 4.71946 4.55256 4.64843 4.84731 4.50639C5.1456 4.36434 5.38175 4.16548 5.55576 3.9098C5.73332 3.65057 5.8221 3.34517 5.8221 2.99361C5.8221 2.54261 5.66407 2.16441 5.34802 1.85902C5.03197 1.55362 4.54724 1.40092 3.89383 1.40092H1.64596V4.71946ZM11.2793 -3.09944e-06V10.9091H9.68662V-3.09944e-06H11.2793ZM16.8683 11.0742C16.1013 11.0742 15.4319 10.8984 14.8602 10.5469C14.2884 10.1953 13.8446 9.70348 13.5285 9.07137C13.2125 8.43927 13.0544 7.70064 13.0544 6.85547C13.0544 6.00674 13.2125 5.26456 13.5285 4.6289C13.8446 3.99325 14.2884 3.49964 14.8602 3.14808C15.4319 2.79652 16.1013 2.62074 16.8683 2.62074C17.6354 2.62074 18.3048 2.79652 18.8765 3.14808C19.4482 3.49964 19.8921 3.99325 20.2082 4.6289C20.5242 5.26456 20.6823 6.00674 20.6823 6.85547C20.6823 7.70064 20.5242 8.43927 20.2082 9.07137C19.8921 9.70348 19.4482 10.1953 18.8765 10.5469C18.3048 10.8984 17.6354 11.0742 16.8683 11.0742ZM16.8737 9.73721C17.3708 9.73721 17.7828 9.60582 18.1095 9.34304C18.4362 9.08025 18.6777 8.73047 18.8339 8.29368C18.9937 7.85689 19.0736 7.37571 19.0736 6.85014C19.0736 6.32812 18.9937 5.84872 18.8339 5.41193C18.6777 4.97159 18.4362 4.61825 18.1095 4.35191C17.7828 4.08558 17.3708 3.95241 16.8737 3.95241C16.373 3.95241 15.9575 4.08558 15.6272 4.35191C15.3005 4.61825 15.0573 4.97159 14.8975 5.41193C14.7412 5.84872 14.6631 6.32812 14.6631 6.85014C14.6631 7.37571 14.7412 7.85689 14.8975 8.29368C15.0573 8.73047 15.3005 9.08025 15.6272 9.34304C15.9575 9.60582 16.373 9.73721 16.8737 9.73721ZM25.8905 14.1477C25.2406 14.1477 24.6813 14.0625 24.2125 13.892C23.7473 13.7216 23.3674 13.4961 23.0726 13.2156C22.7779 12.935 22.5577 12.6278 22.4121 12.294L23.7811 11.7294C23.877 11.8857 24.0048 12.0508 24.1646 12.2248C24.328 12.4023 24.5481 12.5533 24.8251 12.6776C25.1057 12.8018 25.4661 12.864 25.9064 12.864C26.5101 12.864 27.0091 12.7166 27.4032 12.4219C27.7974 12.1307 27.9945 11.6655 27.9945 11.0263V9.41761H27.8933C27.7974 9.59162 27.6589 9.78515 27.4778 9.99822C27.3003 10.2113 27.0552 10.3959 26.7427 10.5522C26.4302 10.7084 26.0236 10.7866 25.5229 10.7866C24.8766 10.7866 24.2942 10.6357 23.7758 10.3338C23.2608 10.0284 22.8525 9.57919 22.5506 8.98615C22.2523 8.38956 22.1032 7.65625 22.1032 6.78622C22.1032 5.91619 22.2505 5.17045 22.5453 4.549C22.8436 3.92755 23.252 3.4517 23.7704 3.12145C24.2889 2.78764 24.8766 2.62074 25.5336 2.62074C26.0414 2.62074 26.4515 2.70596 26.764 2.87642C27.0765 3.04332 27.3198 3.23863 27.4938 3.46236C27.6713 3.68608 27.8081 3.88316 27.9039 4.05362H28.0211V2.72727H29.5819V11.0902C29.5819 11.7933 29.4185 12.3704 29.0918 12.8214C28.7651 13.2724 28.323 13.6062 27.7655 13.8228C27.2115 14.0394 26.5865 14.1477 25.8905 14.1477ZM25.8745 9.46555C26.3326 9.46555 26.7196 9.35902 27.0357 9.14595C27.3553 8.92933 27.5968 8.62038 27.7601 8.2191C27.927 7.81427 28.0105 7.32954 28.0105 6.76491C28.0105 6.21449 27.9288 5.72976 27.7655 5.31072C27.6021 4.89169 27.3624 4.56498 27.0463 4.33061C26.7303 4.09268 26.3397 3.97372 25.8745 3.97372C25.3951 3.97372 24.9956 4.09801 24.676 4.34659C24.3564 4.59162 24.1149 4.92542 23.9515 5.34801C23.7917 5.77059 23.7118 6.24289 23.7118 6.76491C23.7118 7.30113 23.7935 7.77166 23.9569 8.17649C24.1202 8.58132 24.3617 8.89737 24.6813 9.12464C25.0044 9.35191 25.4022 9.46555 25.8745 9.46555Z" fill="#242424"/>
</svg>
