<svg width="49" height="12" viewBox="0 0 49 12" fill="none" xmlns="http://www.w3.org/2000/svg">
<path d="M-8.2925e-06 -3.09944e-06H1.99751L5.47052 8.48011H5.59836L9.07137 -3.09944e-06H11.0689V10.9091H9.50283V3.01491H9.40163L6.1843 10.8931H4.88458L1.66725 3.00958H1.56604V10.9091H-8.2925e-06V-3.09944e-06ZM15.7151 11.0902C15.1966 11.0902 14.7279 10.9943 14.3089 10.8026C13.8898 10.6072 13.5578 10.3249 13.3128 9.95561C13.0713 9.58629 12.9505 9.13352 12.9505 8.5973C12.9505 8.13565 13.0393 7.75568 13.2169 7.45738C13.3944 7.15909 13.6341 6.92294 13.936 6.74893C14.2378 6.57493 14.5752 6.44353 14.9481 6.35476C15.3209 6.26598 15.7009 6.19851 16.088 6.15234C16.578 6.09552 16.9758 6.04936 17.2812 6.01385C17.5866 5.97478 17.8085 5.91264 17.947 5.82741C18.0855 5.74218 18.1547 5.60369 18.1547 5.41193V5.37464C18.1547 4.90944 18.0233 4.549 17.7606 4.29332C17.5013 4.03764 17.1142 3.9098 16.5993 3.9098C16.0631 3.9098 15.6405 4.02876 15.3316 4.26669C15.0262 4.50106 14.8149 4.76207 14.6977 5.04971L13.2009 4.7088C13.3785 4.21164 13.6377 3.81037 13.9786 3.50497C14.3231 3.19602 14.719 2.9723 15.1665 2.8338C15.6139 2.69176 16.0844 2.62074 16.578 2.62074C16.9047 2.62074 17.251 2.6598 17.6167 2.73792C17.9861 2.8125 18.3305 2.95099 18.6501 3.15341C18.9733 3.35582 19.2378 3.64524 19.4438 4.02166C19.6498 4.39453 19.7527 4.87926 19.7527 5.47585V10.9091H18.1973V9.79048H18.1334C18.0304 9.99645 17.876 10.1989 17.67 10.3977C17.464 10.5966 17.1995 10.7617 16.8763 10.8931C16.5532 11.0245 16.1661 11.0902 15.7151 11.0902ZM16.0613 9.81179C16.5017 9.81179 16.8781 9.72478 17.1906 9.55078C17.5067 9.37677 17.7464 9.1495 17.9097 8.86896C18.0766 8.58487 18.1601 8.28125 18.1601 7.95809V6.90341C18.1032 6.96022 17.9932 7.01349 17.8298 7.06321C17.67 7.10937 17.4871 7.15021 17.2812 7.18572C17.0752 7.21768 16.8745 7.24787 16.6792 7.27628C16.4839 7.30113 16.3206 7.32244 16.1892 7.3402C15.8802 7.37926 15.5979 7.44495 15.3422 7.53728C15.0901 7.62961 14.8877 7.76278 14.735 7.93679C14.5858 8.10724 14.5113 8.33451 14.5113 8.61861C14.5113 9.01278 14.6569 9.31108 14.9481 9.51349C15.2392 9.71236 15.6103 9.81179 16.0613 9.81179ZM21.8741 10.9091V2.72727H23.4135V4.02699H23.4987C23.6479 3.58664 23.9107 3.24041 24.2871 2.98828C24.6671 2.7326 25.0968 2.60476 25.5762 2.60476C25.6756 2.60476 25.7928 2.60831 25.9277 2.61541C26.0662 2.62251 26.1745 2.63139 26.2527 2.64204V4.16548C26.1887 4.14772 26.0751 4.12819 25.9117 4.10689C25.7484 4.08203 25.585 4.0696 25.4217 4.0696C25.0453 4.0696 24.7097 4.1495 24.4149 4.3093C24.1237 4.46555 23.8929 4.68395 23.7225 4.96449C23.552 5.24147 23.4668 5.55753 23.4668 5.91264V10.9091H21.8741ZM29.0958 8.13388L29.0851 6.18963H29.3621L32.6221 2.72727H34.529L30.811 6.66903H30.5606L29.0958 8.13388ZM27.6309 10.9091V-3.09944e-06H29.2236V10.9091H27.6309ZM32.7978 10.9091L29.8682 7.02059L30.9655 5.90731L34.7527 10.9091H32.7978ZM39.1699 11.0742C38.3638 11.0742 37.6696 10.902 37.0872 10.5575C36.5083 10.2095 36.0609 9.72123 35.7448 9.09268C35.4323 8.46058 35.2761 7.72017 35.2761 6.87145C35.2761 6.03338 35.4323 5.29474 35.7448 4.65554C36.0609 4.01633 36.5012 3.5174 37.0659 3.15873C37.634 2.80007 38.2981 2.62074 39.0581 2.62074C39.5197 2.62074 39.9671 2.69709 40.4004 2.84978C40.8336 3.00248 41.2225 3.24218 41.5669 3.56889C41.9114 3.89559 42.1831 4.31995 42.3819 4.84197C42.5808 5.36044 42.6802 5.99076 42.6802 6.73295V7.29758H36.1763V6.1044H41.1195C41.1195 5.68537 41.0343 5.31427 40.8638 4.99112C40.6934 4.66441 40.4536 4.40696 40.1447 4.21875C39.8393 4.03054 39.4806 3.93643 39.0687 3.93643C38.6213 3.93643 38.2306 4.04652 37.8968 4.26669C37.5666 4.48331 37.3109 4.7674 37.1298 5.11896C36.9522 5.46697 36.8635 5.84517 36.8635 6.25355V7.18572C36.8635 7.7326 36.9593 8.1978 37.1511 8.58132C37.3464 8.96484 37.6181 9.25781 37.9661 9.46022C38.3141 9.65909 38.7207 9.75852 39.1859 9.75852C39.4877 9.75852 39.763 9.71591 40.0115 9.63068C40.2601 9.5419 40.475 9.41051 40.6561 9.2365C40.8372 9.0625 40.9757 8.84765 41.0715 8.59197L42.579 8.86363C42.4583 9.30753 42.2416 9.69638 41.9291 10.0302C41.6202 10.3604 41.2313 10.6179 40.7626 10.8026C40.2974 10.9837 39.7665 11.0742 39.1699 11.0742ZM48.2666 2.72727V4.00568H43.7975V2.72727H48.2666ZM44.996 0.767043H46.5887V8.50674C46.5887 8.81569 46.6348 9.04829 46.7272 9.20454C46.8195 9.35724 46.9385 9.462 47.0841 9.51882C47.2332 9.57209 47.3948 9.59872 47.5688 9.59872C47.6966 9.59872 47.8085 9.58984 47.9044 9.57209C48.0003 9.55433 48.0748 9.54013 48.1281 9.52947L48.4157 10.8452C48.3234 10.8807 48.192 10.9162 48.0216 10.9517C47.8511 10.9908 47.638 11.0121 47.3824 11.0156C46.9633 11.0227 46.5727 10.9482 46.2105 10.7919C45.8483 10.6357 45.5553 10.3942 45.3316 10.0675C45.1079 9.74076 44.996 9.33061 44.996 8.837V0.767043Z" fill="#242424"/>
</svg>
