<svg width="41" height="12" viewBox="0 0 41 12" fill="none" xmlns="http://www.w3.org/2000/svg">
<path d="M2.22251e-05 10.9091V-3.09944e-06H1.64597V4.74076H7.08454V-3.09944e-06H8.73582V10.9091H7.08454V6.15234H1.64597V10.9091H2.22251e-05ZM14.4514 11.0742C13.6843 11.0742 13.0149 10.8984 12.4432 10.5469C11.8715 10.1953 11.4276 9.70348 11.1115 9.07137C10.7955 8.43927 10.6375 7.70064 10.6375 6.85547C10.6375 6.00674 10.7955 5.26456 11.1115 4.6289C11.4276 3.99325 11.8715 3.49964 12.4432 3.14808C13.0149 2.79652 13.6843 2.62074 14.4514 2.62074C15.2184 2.62074 15.8878 2.79652 16.4595 3.14808C17.0313 3.49964 17.4752 3.99325 17.7912 4.6289C18.1073 5.26456 18.2653 6.00674 18.2653 6.85547C18.2653 7.70064 18.1073 8.43927 17.7912 9.07137C17.4752 9.70348 17.0313 10.1953 16.4595 10.5469C15.8878 10.8984 15.2184 11.0742 14.4514 11.0742ZM14.4567 9.73721C14.9539 9.73721 15.3658 9.60582 15.6925 9.34304C16.0192 9.08025 16.2607 8.73047 16.4169 8.29368C16.5767 7.85689 16.6566 7.37571 16.6566 6.85014C16.6566 6.32812 16.5767 5.84872 16.4169 5.41193C16.2607 4.97159 16.0192 4.61825 15.6925 4.35191C15.3658 4.08558 14.9539 3.95241 14.4567 3.95241C13.956 3.95241 13.5405 4.08558 13.2102 4.35191C12.8835 4.61825 12.6403 4.97159 12.4805 5.41193C12.3242 5.84872 12.2461 6.32812 12.2461 6.85014C12.2461 7.37571 12.3242 7.85689 12.4805 8.29368C12.6403 8.73047 12.8835 9.08025 13.2102 9.34304C13.5405 9.60582 13.956 9.73721 14.4567 9.73721ZM20.0431 10.9091V2.72727H21.5718V4.05895H21.6731C21.8435 3.60795 22.1223 3.25639 22.5093 3.00426C22.8964 2.74858 23.3598 2.62074 23.8996 2.62074C24.4465 2.62074 24.9046 2.74858 25.2739 3.00426C25.6468 3.25994 25.922 3.6115 26.0995 4.05895H26.1848C26.3801 3.62216 26.6908 3.27414 27.1169 3.01491C27.5431 2.75213 28.0509 2.62074 28.6404 2.62074C29.3826 2.62074 29.988 2.85334 30.4568 3.31853C30.9291 3.78373 31.1652 4.48508 31.1652 5.42258V10.9091H29.5726V5.57173C29.5726 5.01775 29.4216 4.61647 29.1198 4.36789C28.8179 4.11932 28.4575 3.99503 28.0385 3.99503C27.52 3.99503 27.1169 4.15483 26.8293 4.47443C26.5417 4.79048 26.3978 5.19709 26.3978 5.69424V10.9091H24.8105V5.47052C24.8105 5.02663 24.672 4.66974 24.395 4.39986C24.118 4.12997 23.7576 3.99503 23.3137 3.99503C23.0118 3.99503 22.7331 4.07493 22.4774 4.23473C22.2253 4.39098 22.0211 4.60937 21.8648 4.88991C21.7121 5.17045 21.6358 5.49538 21.6358 5.8647V10.9091H20.0431ZM36.8262 11.0742C36.0201 11.0742 35.3258 10.902 34.7435 10.5575C34.1646 10.2095 33.7172 9.72123 33.4011 9.09268C33.0886 8.46058 32.9324 7.72017 32.9324 6.87145C32.9324 6.03338 33.0886 5.29474 33.4011 4.65554C33.7172 4.01633 34.1575 3.5174 34.7221 3.15873C35.2903 2.80007 35.9544 2.62074 36.7143 2.62074C37.176 2.62074 37.6234 2.69709 38.0567 2.84978C38.4899 3.00248 38.8788 3.24218 39.2232 3.56889C39.5677 3.89559 39.8393 4.31995 40.0382 4.84197C40.2371 5.36044 40.3365 5.99076 40.3365 6.73295V7.29758H33.8326V6.1044H38.7758C38.7758 5.68537 38.6905 5.31427 38.5201 4.99112C38.3496 4.66441 38.1099 4.40696 37.801 4.21875C37.4956 4.03054 37.1369 3.93643 36.725 3.93643C36.2775 3.93643 35.8869 4.04652 35.5531 4.26669C35.2229 4.48331 34.9672 4.7674 34.7861 5.11896C34.6085 5.46697 34.5197 5.84517 34.5197 6.25355V7.18572C34.5197 7.7326 34.6156 8.1978 34.8074 8.58132C35.0027 8.96484 35.2743 9.25781 35.6224 9.46022C35.9704 9.65909 36.377 9.75852 36.8422 9.75852C37.144 9.75852 37.4192 9.71591 37.6678 9.63068C37.9164 9.5419 38.1312 9.41051 38.3123 9.2365C38.4935 9.0625 38.6319 8.84765 38.7278 8.59197L40.2353 8.86363C40.1145 9.30753 39.8979 9.69638 39.5854 10.0302C39.2765 10.3604 38.8876 10.6179 38.4189 10.8026C37.9537 10.9837 37.4228 11.0742 36.8262 11.0742Z" fill="#5856D6"/>
</svg>
